<svg xmlns="http://www.w3.org/2000/svg" viewBox="0 0 1000 1000">
  <path d="M520.59 12.1c-11.38 3.06-28.01 19.48-31.52 31.52-3.5 11.82-3.28 19.04.44 28.23l3.06 7.44-74.63.66c-71.57.66-75.29.88-85.14 5.47-21.89 10.07-38.74 31.95-42.46 55.15l-1.53 8.97h491.57l-1.53-8.97c-3.72-23.2-20.57-45.09-42.46-55.15-9.85-4.6-13.57-4.82-84.92-5.47l-74.63-.66 2.84-8.1c6.13-16.85 1.97-32.17-12.26-46.62-13.56-13.56-27.78-17.5-46.83-12.47zM168.44 186.98c-20.57 4.81-41.15 22.76-48.81 42.46-3.94 10.5-4.16 18.38-4.16 164.59 0 152.33 0 153.64 4.6 159.77 15.98 21.45 42.68 21.45 58.66 0 4.6-6.13 4.6-7.88 5.25-152.77l.44-146.42h38.52c28.67 0 38.52.66 39.18 2.63.66 1.53 12.91 106.15 27.36 232.65 14.44 126.28 26.92 232.65 27.58 236.37 3.72 18.17 18.82 36.99 36.99 46.62l10.94 5.91h339.23l10.94-5.91c18.17-9.63 33.27-28.45 36.99-46.62.66-3.72 10.72-88.2 22.11-188l20.79-181.44 40.71-54.28c22.32-29.98 42.46-58 44.87-62.6 8.54-16.63 2.63-37.42-13.57-48.15l-9.41-6.13-340.33-.44c-193.7 0-344.06.66-348.88 1.76zm613.48 68.72c0 .66-7.22 10.94-15.98 22.54-8.76 11.6-21.01 28.23-27.14 36.55l-11.16 15.32-4.6 40.49c-2.63 22.32-5.25 44.65-5.91 49.68l-1.31 9.41H534.38c-99.8 0-181.44-.22-181.44-.66 0-.22-4.38-38.74-9.85-85.58-5.47-47.06-9.85-86.01-9.85-87.11 0-.88 100.9-1.75 224.33-1.75 123.45.01 224.35.45 224.35 1.11zM604.64 517.24v17.51H464.56v-35.02h140.08v17.51zm0 105.05v17.51H464.56v-35.02h140.08v17.51z"/>
  <path d="M464.57 342.15v17.51h140.07v-35.02H464.56v17.51zm-130.23 476.9c-4.82 2.19-10.51 5.91-12.48 8.1-1.97 2.19-14.01 30.21-26.7 62.16-25.83 64.35-27.36 71.79-17.95 85.58 10.94 16.2-6.57 15.1 257.38 15.1 214.05 0 237.47-.44 244.25-3.5 10.29-4.82 16.63-14.67 17.95-27.36.88-9.41-1.53-16.41-22.54-69.16-12.91-32.17-24.95-60.63-26.92-62.81-2.19-2.19-7.66-5.91-12.47-8.1-8.32-3.94-19.04-4.16-200.26-4.16-181.22-.01-191.94.21-200.26 4.15zm224.12 37.43c18.17 9.19 27.36 25.39 27.58 47.27 0 13.35-.88 16.85-6.57 26.26-4.16 6.56-10.73 13.13-17.29 17.29-9.63 5.91-12.69 6.57-27.58 6.57-14.88 0-17.95-.66-27.58-6.57-39.18-24.29-29.55-83.82 15.54-95.42 9.41-2.41 26.71-.22 35.9 4.6z"/>
</svg>
