<svg xmlns="http://www.w3.org/2000/svg" xmlns:xlink="http://www.w3.org/1999/xlink" viewBox="0 0 100 100">
  <svg xmlns="http://www.w3.org/2000/svg" data-name="Layer 1" viewBox="0 0 100 100" transform="matrix(.69 0 0 .69 15.5 15.5)">
    <path d="M89 17v6a3 3 0 0 1-3 3H14a3 3 0 0 1-3-3v-6a3 3 0 0 1 3-3h24V5a3 3 0 0 1 3-3h18a3 3 0 0 1 3 3v9h24a3 3 0 0 1 3 3zM26 98a9 9 0 0 1-9-9V35h66v54a9 9 0 0 1-9 9zm37.5-15a4.5 4.5 0 0 0 9 0V50a4.5 4.5 0 0 0-9 0zm-18 0a4.5 4.5 0 0 0 9 0V50a4.5 4.5 0 0 0-9 0zm-18 0a4.5 4.5 0 0 0 9 0V50a4.5 4.5 0 0 0-9 0z"/>
  </svg>
</svg>
