<svg xmlns="http://www.w3.org/2000/svg" xmlns:xlink="http://www.w3.org/1999/xlink" viewBox="0 0 100 100">
  <svg xmlns="http://www.w3.org/2000/svg" viewBox="-949 951 100 100" transform="matrix(.69 0 0 .69 15.5 15.5)">
    <path d="M-919.3 1026.5c1 1 2.7 1 3.8 0l39.8-39.8c1-1 1-2.7 0-3.8l-5.3-5.3c-1-1-2.7-1-3.8 0l-39.7 39.7c-1 1-1 2.7 0 3.8l5.2 5.4z"/>
    <path d="M-880.8 1014.4l16.4-16.4c1-1 1-2.7 0-3.8l-4.7-4.7c-1-1-2.7-1-3.8 0l-40.2 40.2c-.9.9-1 2.2-.4 3.2l1.9 3.3c-.5.5-1.2.8-1.9.9l-13 2.2c-1.9-5-5.8-8.9-10.8-10.8l2.2-13c.1-.7.4-1.4.9-1.9l3.3 1.9c1.1.6 2.4.4 3.2-.4l40.2-40.2c1-1 1-2.7 0-3.8l-4.7-4.7c-1-1-2.7-1-3.8 0l-42.6 42.6c-1.5 1.5-2.5 3.4-2.8 5.5l-5 30.1c-.2 1.1.2 2.2.9 2.9v.1h.1c.6.6 1.4.9 2.2.9.2 0 .4 0 .6-.1l30.1-5c2.1-.3 4-1.3 5.5-2.8l26.2-26.2zM-851.8 981.6c-5.1-12.6-15.2-22.7-27.8-27.8-1.6-.7-3.5-.3-4.8 1l-5.1 5.1c-1 1-1 2.7 0 3.8l27.8 27.8c1 1 2.7 1 3.8 0l5.1-5.1c1.2-1.2 1.7-3.1 1-4.8z"/>
  </svg>
</svg>
