<svg xmlns="http://www.w3.org/2000/svg" xmlns:xlink="http://www.w3.org/1999/xlink" viewBox="0 0 100 100">
  <svg xmlns="http://www.w3.org/2000/svg" viewBox="0 0 100 100" transform="matrix(.69 0 0 .69 15.5 15.5)">
    <path d="M78.7 82c0 3.8-3.1 6.7-6.8 6.7H18.1c-3.8 0-6.8-3-6.8-6.7V28c0-3.7 3.1-6.7 6.8-6.7h27.5l8.7-8.7H18.1C9.5 12.6 2.5 19.5 2.5 28v54c0 8.6 7 15.5 15.6 15.5H72c8.6 0 15.6-6.9 15.6-15.5V45.7l-8.7 8.7V82z"/>
    <path d="M95.5 16.7L83.3 4.6c-1.3-1.3-3.1-2.1-4.9-2.1-1.9 0-3.6.7-4.9 2l-45 45c-1.2 1.2-1.9 2.8-2 4.5l-.8 12.9c-.1 2 .6 4 2 5.4 1.3 1.3 3.1 2 4.9 2h.4l13-.8c1.7-.1 3.3-.8 4.5-2l44.9-44.9c1.3-1.3 2-3.1 2-4.9.1-1.9-.6-3.7-1.9-5zm-28.7 6.9l9.7 9.7L54 55.7 44.3 46l22.5-22.4zm-22 41.3l-10.3.6.6-10.3 2.9-2.9 9.7 9.7-2.9 2.9zM82.6 27L73 17.4l5.4-5.4 9.7 9.7-5.5 5.3z"/>
  </svg>
</svg>
