<svg xmlns="http://www.w3.org/2000/svg" xmlns:xlink="http://www.w3.org/1999/xlink" viewBox="0 0 100 100">
  <svg xmlns="http://www.w3.org/2000/svg" viewBox="0 0 100 100" transform="matrix(.69 0 0 .69 15.5 15.5)">
    <path d="M95.7 49.5l1.8-23c.2-2.6-2.5-4.4-4.8-3.2l-5.3 2.8C79.5 13.8 65.7 5.6 50 5.6c-16.9 0-31.7 9.5-39.2 23.5-2.3 4.2.7 9.3 5.5 9.3 2.3 0 4.5-1.3 5.6-3.4C27.3 25 37.8 18.2 50 18.2c10.8 0 20.4 5.5 26.2 13.8L71 34.6c-2.3 1.2-2.4 4.4-.1 5.7L90.8 52c2.1 1.3 4.7-.1 4.9-2.5zM50 94.4c16.9 0 31.7-9.5 39.2-23.5 2.3-4.2-.7-9.3-5.5-9.3-2.3 0-4.5 1.3-5.6 3.4C72.7 75 62.2 81.8 50 81.8c-10.8 0-20.4-5.5-26.2-13.8l5.2-2.7c2.3-1.2 2.4-4.4.1-5.7L9.2 47.9c-2.1-1.2-4.7.2-4.9 2.6l-1.8 23c-.2 2.6 2.5 4.4 4.8 3.2l5.3-2.8C20.5 86.2 34.3 94.4 50 94.4z"/>
  </svg>
</svg>
