<svg xmlns="http://www.w3.org/2000/svg" viewBox="0 0 399.744 399.744">
  <path d="M122.727 287.403l-1.626 4.393a9.003 9.003 0 0 1-8.441 5.878 8.993 8.993 0 0 1-3.124-.563c-4.661-1.727-7.041-6.904-5.315-11.565l1.626-4.393a9 9 0 0 1 16.88 6.25zM87.666 301.93a8.997 8.997 0 0 0-11.567 5.31l-1.628 4.392a8.999 8.999 0 0 0 5.31 11.567 8.97 8.97 0 0 0 3.128.564 9.003 9.003 0 0 0 8.439-5.874l1.628-4.392c1.727-4.659-.65-9.838-5.31-11.567zm28.504 60.256c-4.992 6.813-9.707 13.249-13.042 18.453-8.736 13.635-23.299 19.066-38.208 19.066-8.072 0-16.243-1.592-23.649-4.335-21.063-7.803-40.762-26.74-37.288-51.458.86-6.119 1.475-14.071 2.126-22.49 2.786-36.011 6.252-80.827 32.487-97.621a39.883 39.883 0 0 1 2.951-1.715c-5.908-13.839-5.224-29.718 2.421-42.263a8.995 8.995 0 0 1 4.505-3.735c12.807-4.839 27.499-3.211 39.626 3.938 9.074-10.768 22.38-17.161 36.082-16.844a8.995 8.995 0 0 1 5.487 2.032c10.594 8.669 16.534 22.206 16.404 36.286 13.863 2.474 26.067 10.813 32.632 22.826a9.006 9.006 0 0 1 .984 5.77c-2.374 14.497-12.2 26.99-25.697 33.641a39.453 39.453 0 0 1 1.123 3.224c8.964 29.832-17.6 66.09-38.944 95.225zm21.706-90.045c-.766-2.548-2-4.901-3.715-7.07a9.226 9.226 0 0 1-.709-.854c-3.729-4.29-9.437-7.832-17.227-10.718l-39.351-14.577c-7.789-2.885-14.426-3.912-20.05-3.092a8.98 8.98 0 0 1-1.099.188c-2.714.528-5.182 1.51-7.422 2.944-18.685 11.961-21.898 53.511-24.246 83.849-.673 8.708-1.31 16.932-2.248 23.607-2.081 14.806 11.416 26.777 25.715 32.074 14.323 5.308 32.384 5.023 40.449-7.563 3.638-5.678 8.514-12.333 13.676-19.38 17.983-24.546 42.611-58.162 36.227-79.408zm5.555-23.403c8.661-3.313 15.32-10.191 17.784-18.457-5.38-7.41-14.782-11.857-24.798-11.525a9.035 9.035 0 0 1-7.226-3.249 9.002 9.002 0 0 1-1.857-7.702c2.179-9.787-.455-19.842-6.743-26.497-9.105.953-17.654 6.865-22.376 15.71a9 9 0 0 1-14.025 2.392c-7.387-6.781-17.417-9.53-26.322-7.409-3.517 7.875-2.946 17.431 1.466 25.587.432-.012.866-.018 1.303-.018 6.928 0 14.438 1.49 22.491 4.474l39.35 14.577c8.559 3.17 15.555 7.219 20.953 12.117zm-54.014 16.73a9 9 0 0 0-11.566 5.313l-1.627 4.392c-1.728 4.66.651 9.839 5.312 11.566a8.98 8.98 0 0 0 3.126.563 9.003 9.003 0 0 0 8.44-5.876l1.627-4.392c1.727-4.659-.652-9.838-5.312-11.566zM377.84 86.923c-16.207 16.205-39.225 22.107-59.541 15.91l-8.857 239.111c.041 2.762-.744 6.688-4.412 10.545-11.745 12.348-49.027 16.729-77.386 16.729-13.659 0-81.795-1.316-81.795-27.303a9.001 9.001 0 1 1 17.864-1.565c4.286 3.919 26.686 10.868 63.931 10.868 36.796 0 59.179-6.74 63.836-10.639l8.373-226.033c-4.117 1.446-8.418 2.54-12.338 3.416-16.093 3.598-37.355 5.578-59.871 5.578-22.516 0-43.779-1.98-59.872-5.578-3.92-.876-8.222-1.971-12.339-3.416l1 27.011a9 9 0 0 1-8.661 9.327c-4.975.162-9.143-3.694-9.327-8.661l-1.669-45.107a14.326 14.326 0 0 1-.026-.835v-.121c.068-12.907 17.583-18.013 23.345-19.692 4.772-1.393 9.768 1.35 11.159 6.122a9 9 0 0 1-6.122 11.159c-3.139.915-5.431 1.779-7.088 2.52 9.33 4.055 33.287 9.272 69.601 9.272 36.41 0 60.397-5.245 69.673-9.305-9.276-4.06-33.263-9.305-69.673-9.305-7.928 0-15.691.256-23.167.763a9.002 9.002 0 0 1-7.955 8.562c-4.93.578-9.404-2.964-9.979-7.9l-9.1-78.314a9 9 0 0 1 7.901-9.979c4.932-.58 9.405 2.964 9.979 7.9l7.184 61.824a360.986 360.986 0 0 1 25.136-.855c22.516 0 43.778 1.98 59.871 5.578 4.295.96 9.046 2.181 13.513 3.84-2.26-17.811 4.068-36.56 17.874-50.364 18.379-18.381 45.525-23.505 67.552-12.753a9.003 9.003 0 0 1 4.139 4.139c10.752 22.021 5.628 49.169-12.753 67.551zm-2.166-56.772c-14.576-5.619-31.908-1.575-44.045 10.563-9.355 9.354-13.904 21.794-12.924 33.68l26.361-26.362a9.001 9.001 0 0 1 12.728 12.729l-26.36 26.36c11.886.981 24.323-3.57 33.677-12.925 12.138-12.139 16.185-29.47 10.563-44.045zM229.6 146.942l-3.312 3.313a9 9 0 0 0 12.73 12.727l3.312-3.313a9 9 0 0 0-12.73-12.727zm-28.135-8.172a9 9 0 0 0-7.901 9.979l20.396 175.513a9 9 0 1 0 17.88-2.079L211.444 146.67c-.573-4.937-5.041-8.473-9.979-7.9zm64.118 47.239a8.975 8.975 0 0 0 6.364-2.636l3.312-3.312a9 9 0 0 0-12.728-12.729l-3.312 3.312a9 9 0 0 0 6.364 15.365zm-14.682 12.465a9.001 9.001 0 0 0-12.728 12.729l3.312 3.312c1.757 1.757 4.061 2.636 6.364 2.636s4.606-.879 6.364-2.636a9 9 0 0 0 0-12.729l-3.312-3.312zm53.82 171.329c-3.721-3.297-9.41-2.949-12.705.772-3.448 3.895-25.869 11.168-64.372 11.168-38.2 0-60.731-7.334-64.305-11.26a9 9 0 0 0-13.312 12.115c11.518 12.654 49.01 17.145 77.617 17.145 28.873 0 66.585-4.514 77.849-17.236a8.999 8.999 0 0 0-.772-12.704z"/>
</svg>
